<svg width="360" height="800" viewBox="0 0 360 800" fill="none" xmlns="http://www.w3.org/2000/svg">
<rect width="360" height="800" fill="#E5E5E5"/>
<g clip-path="url(#clip0_0_1)">
<rect width="360" height="800" fill="url(#paint0_linear_0_1)"/>
<g style="mix-blend-mode:overlay" filter="url(#filter0_d_0_1)">
<path d="M316.808 334.192C98.6179 469.222 267.765 262.869 -37 435.984L-28.4926 857H538V159C536.999 172.388 491.359 226.169 316.808 334.192Z" fill="url(#paint1_linear_0_1)" shape-rendering="crispEdges"/>
<path d="M316.808 334.192C98.6179 469.222 267.765 262.869 -37 435.984L-28.4926 857H538V159C536.999 172.388 491.359 226.169 316.808 334.192Z" stroke="white" shape-rendering="crispEdges"/>
</g>
</g>
<rect x="0.5" y="0.5" width="359" height="799" stroke="#EEEEEE"/>
<defs>
<filter id="filter0_d_0_1" x="-41.5059" y="158.963" width="584.006" height="706.537" filterUnits="userSpaceOnUse" color-interpolation-filters="sRGB">
<feFlood flood-opacity="0" result="BackgroundImageFix"/>
<feColorMatrix in="SourceAlpha" type="matrix" values="0 0 0 0 0 0 0 0 0 0 0 0 0 0 0 0 0 0 127 0" result="hardAlpha"/>
<feOffset dy="4"/>
<feGaussianBlur stdDeviation="2"/>
<feComposite in2="hardAlpha" operator="out"/>
<feColorMatrix type="matrix" values="0 0 0 0 0 0 0 0 0 0 0 0 0 0 0 0 0 0 0.25 0"/>
<feBlend mode="normal" in2="BackgroundImageFix" result="effect1_dropShadow_0_1"/>
<feBlend mode="normal" in="SourceGraphic" in2="effect1_dropShadow_0_1" result="shape"/>
</filter>
<linearGradient id="paint0_linear_0_1" x1="180" y1="0" x2="180" y2="800" gradientUnits="userSpaceOnUse">
<stop stop-color="#1A5EC4"/>
<stop offset="1" stop-color="#38AAE4"/>
</linearGradient>
<linearGradient id="paint1_linear_0_1" x1="250.5" y1="159" x2="250.5" y2="857" gradientUnits="userSpaceOnUse">
<stop stop-color="white"/>
<stop offset="1" stop-color="white" stop-opacity="0"/>
</linearGradient>
<clipPath id="clip0_0_1">
<rect width="360" height="800" fill="white"/>
</clipPath>
</defs>
</svg>
